<svg xmlns="http://www.w3.org/2000/svg" width="60" height="35" viewBox="0 0 140.0 140.0"><g fill-rule="evenodd" clip-rule="evenodd"><path d="M144.639 19.125c-39.119 14.481-73.915 35.812-97.886 72.29 7.255-2.322 12.798-4.644 16.658-6.965-26.176 21.881-14.278 44.807 20.46 15.352C106.217 80.881 108.655 69.765 98.7 69.62c4.091-18.688 21.329-35.23 45.939-50.495z" fill="#32378e"/><path d="M105.199 112.6c-2.873 4.035-.986 6.385 4.645.523 39.555-40.977 72.58-83.695 50.902-92.373-7.777-3.076-28.18 11.957-43.561 35.869-8.212 12.77 19.211 12.335-11.986 55.981z" fill="#33a457"/></g></svg>